<svg width="250" height="74" viewBox="0 0 250 74" fill="none" xmlns="http://www.w3.org/2000/svg">
<path d="M37.8201 23.0582C37.6724 21.5687 37.0384 20.4115 35.9181 19.5866C34.7979 18.7618 33.2775 18.3494 31.3571 18.3494C30.0521 18.3494 28.9503 18.5341 28.0517 18.9034C27.153 19.2604 26.4636 19.759 25.9835 20.3991C25.5157 21.0393 25.2818 21.7656 25.2818 22.5781C25.2572 23.2552 25.3987 23.8461 25.7065 24.3509C26.0266 24.8556 26.4636 25.2926 27.0176 25.6619C27.5716 26.0189 28.2117 26.3329 28.938 26.6037C29.6644 26.8622 30.4399 27.0838 31.2647 27.2685L34.6625 28.081C36.3121 28.4503 37.8263 28.9427 39.2051 29.5582C40.5839 30.1738 41.778 30.9309 42.7875 31.8295C43.7969 32.7282 44.5787 33.7869 45.1326 35.0057C45.6989 36.2244 45.9882 37.6217 46.0005 39.1974C45.9882 41.5118 45.3973 43.5185 44.2278 45.2173C43.0706 46.9039 41.3964 48.215 39.2051 49.1506C37.0261 50.0739 34.3978 50.5355 31.3201 50.5355C28.2671 50.5355 25.608 50.0677 23.3429 49.1321C21.09 48.1965 19.3296 46.8116 18.0616 44.9773C16.8059 43.1307 16.1473 40.8471 16.0858 38.1264H23.823C23.9092 39.3944 24.2723 40.4531 24.9125 41.3026C25.5649 42.1397 26.4328 42.7737 27.5162 43.2045C28.6118 43.6231 29.849 43.8324 31.2278 43.8324C32.582 43.8324 33.7576 43.6354 34.7548 43.2415C35.7643 42.8475 36.546 42.2997 37.1 41.598C37.6539 40.8963 37.9309 40.09 37.9309 39.179C37.9309 38.3295 37.6786 37.6155 37.1738 37.0369C36.6814 36.4583 35.9551 35.9659 34.9949 35.5597C34.0469 35.1534 32.8836 34.7841 31.5048 34.4517L27.3869 33.4176C24.1984 32.642 21.6809 31.4295 19.8343 29.7798C17.9877 28.1302 17.0706 25.9081 17.0829 23.1136C17.0706 20.8239 17.68 18.8234 18.911 17.1122C20.1544 15.401 21.8594 14.0653 24.0261 13.1051C26.1928 12.1449 28.6549 11.6648 31.4125 11.6648C34.2193 11.6648 36.6691 12.1449 38.7619 13.1051C40.867 14.0653 42.5043 15.401 43.6738 17.1122C44.8433 18.8234 45.4466 20.8054 45.4835 23.0582H37.8201ZM63.4139 50V12.1818H78.3343C81.2027 12.1818 83.6464 12.7296 85.6653 13.8253C87.6842 14.9086 89.2231 16.4167 90.2818 18.3494C91.3528 20.2699 91.8883 22.4858 91.8883 24.9972C91.8883 27.5085 91.3467 29.7244 90.2633 31.6449C89.18 33.5653 87.6104 35.0611 85.5545 36.1321C83.511 37.2031 81.0365 37.7386 78.1312 37.7386H68.6213V31.331H76.8386C78.3774 31.331 79.6454 31.0663 80.6426 30.5369C81.652 29.9953 82.403 29.2505 82.8954 28.3026C83.4002 27.3423 83.6525 26.2405 83.6525 24.9972C83.6525 23.7415 83.4002 22.6458 82.8954 21.7102C82.403 20.7623 81.652 20.0298 80.6426 19.5128C79.6331 18.9834 78.3528 18.7188 76.8017 18.7188H71.4096V50H63.4139ZM157.258 50V12.1818H172.178C175.034 12.1818 177.472 12.6927 179.491 13.7145C181.522 14.724 183.067 16.1581 184.126 18.017C185.197 19.8636 185.732 22.0365 185.732 24.5355C185.732 27.0469 185.19 29.2074 184.107 31.017C183.024 32.8144 181.454 34.1932 179.398 35.1534C177.355 36.1136 174.88 36.5938 171.975 36.5938H161.985V30.1676H170.682C172.209 30.1676 173.477 29.9583 174.486 29.5398C175.496 29.1212 176.247 28.4934 176.739 27.6562C177.244 26.8191 177.496 25.7789 177.496 24.5355C177.496 23.2798 177.244 22.2211 176.739 21.3594C176.247 20.4976 175.49 19.8452 174.468 19.402C173.458 18.9465 172.184 18.7188 170.645 18.7188H165.253V50H157.258ZM177.681 32.7898L187.08 50H178.253L169.057 32.7898H177.681ZM203.418 50V12.1818H211.414V28.8565H211.912L225.521 12.1818H235.105L221.071 29.1151L235.271 50H225.706L215.347 34.4517L211.414 39.2528V50H203.418Z" fill="#B4972A"/>
<path d="M96 48.3568L120.248 14L112.165 39.1452H126.583L102.99 74L111.51 48.3568H96Z" fill="#B4972A"/>
<path d="M125.927 22.9627L119.155 33.1701L125.053 14H132.917L141 47.61H133.354L128.112 23.4606L125.927 22.9627Z" fill="#B4972A"/>
</svg>
